<svg width="150" height="283" viewBox="0 0 150 283" fill="none" xmlns="http://www.w3.org/2000/svg">
<path d="M11 0.5C29.4575 0.5 44.4204 15.4628 44.4204 33.9203V167.602C25.9628 167.602 11 152.639 11 134.181V67.3407V0.5Z" fill="white"/>
<path d="M61.1306 33.9203C79.5881 33.9203 94.5509 48.8832 94.5509 67.3407V134.181C76.0934 134.181 61.1306 119.219 61.1306 100.761V33.9203Z" fill="white"/>
<path d="M105.58 70.4739C124.037 70.4739 139 85.4367 139 103.894C120.542 103.894 105.58 88.9314 105.58 70.4739Z" fill="white"/>
<path d="M4.02597 238.355H8.83117L20.1299 265.952H20.5195L31.8182 238.355H36.6234V271.602H32.8571V246.342H32.5325L22.1429 271.602H18.5065L8.11688 246.342H7.79221V271.602H4.02597V238.355ZM66.5138 238.355H70.5398V260.368C70.5398 262.641 70.0041 264.67 68.9326 266.456C67.872 268.231 66.3731 269.632 64.4359 270.66C62.4986 271.678 60.2259 272.186 57.6177 272.186C55.0095 272.186 52.7367 271.678 50.7995 270.66C48.8623 269.632 47.358 268.231 46.2865 266.456C45.2259 264.67 44.6956 262.641 44.6956 260.368V238.355H48.7216V260.043C48.7216 261.667 49.0787 263.112 49.793 264.378C50.5073 265.633 51.5246 266.623 52.845 267.349C54.1761 268.063 55.767 268.42 57.6177 268.42C59.4683 268.42 61.0593 268.063 62.3904 267.349C63.7216 266.623 64.7389 265.633 65.4424 264.378C66.1567 263.112 66.5138 261.667 66.5138 260.043V238.355ZM96.7614 246.667C96.5666 245.022 95.7765 243.745 94.3912 242.836C93.006 241.926 91.3068 241.472 89.2938 241.472C87.822 241.472 86.5341 241.71 85.4302 242.186C84.3371 242.662 83.4821 243.317 82.8653 244.151C82.2592 244.984 81.9562 245.931 81.9562 246.991C81.9562 247.879 82.1672 248.642 82.5893 249.28C83.0222 249.908 83.5741 250.433 84.2451 250.855C84.9161 251.266 85.6196 251.607 86.3555 251.878C87.0915 252.138 87.7679 252.349 88.3847 252.511L91.7614 253.42C92.6272 253.647 93.5904 253.961 94.651 254.362C95.7224 254.762 96.7451 255.309 97.7192 256.001C98.704 256.683 99.5157 257.56 100.154 258.631C100.793 259.702 101.112 261.017 101.112 262.576C101.112 264.372 100.641 265.996 99.6997 267.446C98.7689 268.896 97.4053 270.049 95.6088 270.904C93.8231 271.759 91.6531 272.186 89.099 272.186C86.7181 272.186 84.6564 271.802 82.914 271.034C81.1824 270.265 79.8187 269.194 78.8231 267.819C77.8382 266.445 77.2808 264.849 77.151 263.03H81.3068C81.415 264.286 81.8371 265.325 82.5731 266.147C83.3198 266.959 84.2614 267.565 85.3977 267.965C86.5449 268.355 87.7787 268.55 89.099 268.55C90.6358 268.55 92.0157 268.301 93.2386 267.803C94.4616 267.294 95.4302 266.591 96.1445 265.693C96.8588 264.784 97.2159 263.723 97.2159 262.511C97.2159 261.407 96.9075 260.509 96.2906 259.816C95.6737 259.123 94.862 258.561 93.8555 258.128C92.849 257.695 91.7614 257.316 90.5925 256.991L86.5016 255.823C83.9042 255.076 81.8479 254.01 80.3328 252.625C78.8176 251.239 78.0601 249.426 78.0601 247.186C78.0601 245.325 78.5633 243.701 79.5698 242.316C80.5871 240.92 81.9508 239.838 83.6607 239.069C85.3815 238.29 87.3025 237.901 89.4237 237.901C91.5666 237.901 93.4713 238.285 95.138 239.053C96.8047 239.811 98.125 240.85 99.099 242.17C100.084 243.49 100.603 244.989 100.657 246.667H96.7614ZM111.757 238.355V271.602H107.731V238.355H111.757ZM146.583 248.745H142.557C142.319 247.587 141.902 246.569 141.307 245.693C140.722 244.816 140.008 244.08 139.164 243.485C138.331 242.879 137.405 242.424 136.388 242.121C135.371 241.818 134.31 241.667 133.206 241.667C131.193 241.667 129.37 242.175 127.735 243.193C126.112 244.21 124.819 245.709 123.856 247.689C122.903 249.67 122.427 252.1 122.427 254.978C122.427 257.857 122.903 260.287 123.856 262.267C124.819 264.248 126.112 265.747 127.735 266.764C129.37 267.781 131.193 268.29 133.206 268.29C134.31 268.29 135.371 268.139 136.388 267.836C137.405 267.533 138.331 267.083 139.164 266.488C140.008 265.882 140.722 265.141 141.307 264.264C141.902 263.377 142.319 262.359 142.557 261.212H146.583C146.28 262.911 145.728 264.432 144.927 265.774C144.126 267.116 143.13 268.258 141.94 269.199C140.749 270.13 139.413 270.839 137.93 271.326C136.458 271.813 134.884 272.056 133.206 272.056C130.371 272.056 127.849 271.364 125.641 269.978C123.433 268.593 121.696 266.623 120.43 264.069C119.164 261.515 118.531 258.485 118.531 254.978C118.531 251.472 119.164 248.442 120.43 245.888C121.696 243.333 123.433 241.364 125.641 239.978C127.849 238.593 130.371 237.901 133.206 237.901C134.884 237.901 136.458 238.144 137.93 238.631C139.413 239.118 140.749 239.832 141.94 240.774C143.13 241.705 144.126 242.841 144.927 244.183C145.728 245.514 146.28 247.035 146.583 248.745Z" fill="white"/>
</svg>
