<svg width="252" height="64" viewBox="0 0 252 64" fill="none" xmlns="http://www.w3.org/2000/svg">
<path d="M5.25409 12.2424H10.8558L24.0273 44.4142H24.4815L37.653 12.2424H43.2547V51H38.8642V21.5533H38.4857L26.374 51H22.1348L10.0231 21.5533H9.6446V51H5.25409V12.2424ZM78.0997 12.2424H82.793V37.9042C82.793 40.5536 82.1685 42.9192 80.9194 45.0009C79.683 47.07 77.9356 48.7038 75.6773 49.9024C73.419 51.0883 70.7695 51.6813 67.729 51.6813C64.6884 51.6813 62.039 51.0883 59.7806 49.9024C57.5223 48.7038 55.7686 47.07 54.5196 45.0009C53.2832 42.9192 52.665 40.5536 52.665 37.9042V12.2424H57.3583V37.5257C57.3583 39.4181 57.7746 41.1024 58.6073 42.5785C59.44 44.0421 60.6259 45.1965 62.1651 46.0418C63.717 46.8744 65.5716 47.2908 67.729 47.2908C69.8864 47.2908 71.741 46.8744 73.2928 46.0418C74.8446 45.1965 76.0306 44.0421 76.8506 42.5785C77.6833 41.1024 78.0997 39.4181 78.0997 37.5257V12.2424ZM113.361 21.9318C113.134 20.0141 112.213 18.5254 110.598 17.4656C108.983 16.4058 107.002 15.8759 104.656 15.8759C102.94 15.8759 101.438 16.1535 100.152 16.7086C98.8773 17.2637 97.8806 18.027 97.1615 18.9985C96.455 19.9699 96.1017 21.0739 96.1017 22.3103C96.1017 23.3448 96.3477 24.2343 96.8398 24.9787C97.3444 25.7104 97.9879 26.3223 98.7701 26.8143C99.5523 27.2938 100.372 27.6912 101.23 28.0066C102.088 28.3094 102.877 28.5554 103.596 28.7447L107.532 29.8044C108.541 30.0694 109.664 30.4353 110.901 30.9021C112.15 31.3689 113.342 32.006 114.477 32.8134C115.626 33.6083 116.572 34.6302 117.316 35.8792C118.061 37.1283 118.433 38.6612 118.433 40.4779C118.433 42.5722 117.884 44.4647 116.786 46.1553C115.701 47.8459 114.112 49.1895 112.017 50.1862C109.936 51.1829 107.406 51.6813 104.429 51.6813C101.653 51.6813 99.2495 51.2334 97.2183 50.3376C95.1996 49.4419 93.61 48.1928 92.4492 46.5906C91.3012 44.9883 90.6514 43.1274 90.5 41.0078H95.3447C95.4709 42.4713 95.9629 43.6825 96.8208 44.6413C97.6914 45.5876 98.789 46.2941 100.114 46.7609C101.451 47.2151 102.889 47.4422 104.429 47.4422C106.22 47.4422 107.829 47.152 109.254 46.5716C110.68 45.9787 111.809 45.1586 112.642 44.1114C113.474 43.0517 113.891 41.8153 113.891 40.4022C113.891 39.1153 113.531 38.0682 112.812 37.2607C112.093 36.4533 111.147 35.7972 109.973 35.2926C108.8 34.7879 107.532 34.3463 106.17 33.9678L101.401 32.6053C98.3727 31.7347 95.9755 30.492 94.2092 28.8771C92.4429 27.2622 91.5598 25.149 91.5598 22.5374C91.5598 20.3674 92.1465 18.4749 93.3198 16.86C94.5057 15.2325 96.0954 13.9708 98.0888 13.0751C100.095 12.1667 102.334 11.7125 104.807 11.7125C107.305 11.7125 109.526 12.1604 111.468 13.0562C113.411 13.9393 114.951 15.1505 116.086 16.6897C117.234 18.2289 117.84 19.9763 117.903 21.9318H113.361ZM130.843 12.2424V51H126.149V12.2424H130.843ZM171.441 24.3541H166.747C166.47 23.0042 165.984 21.8182 165.29 20.7963C164.609 19.7744 163.776 18.9165 162.792 18.2226C161.821 17.5161 160.742 16.9862 159.556 16.6329C158.37 16.2796 157.134 16.103 155.847 16.103C153.5 16.103 151.374 16.696 149.469 17.8819C147.577 19.0679 146.069 20.8152 144.946 23.124C143.836 25.4328 143.281 28.2652 143.281 31.6212C143.281 34.9772 143.836 37.8095 144.946 40.1183C146.069 42.4272 147.577 44.1745 149.469 45.3605C151.374 46.5464 153.5 47.1394 155.847 47.1394C157.134 47.1394 158.37 46.9627 159.556 46.6095C160.742 46.2562 161.821 45.7326 162.792 45.0387C163.776 44.3322 164.609 43.468 165.29 42.4461C165.984 41.4115 166.47 40.2256 166.747 38.8882H171.441C171.087 40.869 170.444 42.6416 169.51 44.2061C168.577 45.7705 167.416 47.1015 166.028 48.1992C164.64 49.2842 163.082 50.1105 161.354 50.6783C159.638 51.246 157.802 51.5299 155.847 51.5299C152.541 51.5299 149.602 50.7224 147.028 49.1075C144.454 47.4926 142.429 45.1965 140.953 42.219C139.477 39.2415 138.739 35.7089 138.739 31.6212C138.739 27.5335 139.477 24.0009 140.953 21.0234C142.429 18.0459 144.454 15.7498 147.028 14.1349C149.602 12.52 152.541 11.7125 155.847 11.7125C157.802 11.7125 159.638 11.9964 161.354 12.5641C163.082 13.1319 164.64 13.9645 166.028 15.0622C167.416 16.1472 168.577 17.4719 169.51 19.0363C170.444 20.5881 171.087 22.3608 171.441 24.3541Z" fill="white"/>
<path d="M206.536 2.68945C213.011 2.68945 218.26 7.93854 218.26 14.4136V61.3103C211.785 61.3103 206.536 56.0612 206.536 49.5861V26.1378V2.68945Z" fill="white"/>
<path d="M224.122 14.4136C230.597 14.4136 235.846 19.6627 235.846 26.1378V49.5861C229.371 49.5861 224.122 44.3371 224.122 37.862V14.4136Z" fill="white"/>
<path d="M239.715 27.2369C246.19 27.2369 251.439 32.486 251.439 38.9611C244.964 38.9611 239.715 33.712 239.715 27.2369Z" fill="white"/>
</svg>
